<svg width="15" height="18" viewBox="0 0 15 18" fill="none" xmlns="http://www.w3.org/2000/svg">
<path fill-rule="evenodd" clip-rule="evenodd" d="M0.779835 8.9307C0.779835 7.94664 0.863032 7.32213 2.91811 5.80087C4.61949 4.54138 10.073 0.237427 10.073 0.237427V7.42209H14.2203V17.7627H2.07518C1.36275 17.7627 0.779633 17.1844 0.779633 16.4778L0.779835 8.9307Z" fill="#3E9CDC"/>
<path fill-rule="evenodd" clip-rule="evenodd" d="M10.073 7.42209L10.073 11.585L2.45212 16.7335L12.0874 13.6246V7.42201L10.073 7.42209Z" fill="black" fill-opacity="0.2"/>
<path fill-rule="evenodd" clip-rule="evenodd" d="M6.59041 7.20685C7.03611 6.68024 7.68697 6.49437 8.04436 6.79173C8.40175 7.08916 8.33031 7.7572 7.88462 8.28381C7.43926 8.81036 6.78812 8.99603 6.43074 8.6986C6.07335 8.40124 6.14499 7.7334 6.59041 7.20685Z" fill="#231F20"/>
</svg>
